<svg width="88" height="42" viewBox="0 0 88 42" fill="none" xmlns="http://www.w3.org/2000/svg">
<path d="M5.67523 15.382C4.75639 15.382 3.86591 15.2516 3.00379 14.9907C2.15301 14.7298 1.47806 14.3838 0.978939 13.9527L1.74464 12.2342C2.23242 12.6199 2.82796 12.9375 3.53127 13.187C4.24592 13.4253 4.96058 13.5444 5.67523 13.5444C6.56004 13.5444 7.21797 13.4026 7.64903 13.119C8.09143 12.8354 8.31264 12.461 8.31264 11.996C8.31264 11.6556 8.18786 11.3777 7.93829 11.1622C7.70008 10.9353 7.3938 10.7595 7.01946 10.6347C6.64511 10.5099 6.13465 10.3681 5.48806 10.2093C4.58056 9.99379 3.84322 9.77826 3.27604 9.56273C2.7202 9.3472 2.23809 9.01257 1.82972 8.55882C1.43269 8.09373 1.23417 7.46982 1.23417 6.68711C1.23417 6.02917 1.41 5.43363 1.76165 4.90048C2.12465 4.35598 2.66348 3.92492 3.37813 3.60729C4.10413 3.28967 4.98893 3.13086 6.03255 3.13086C6.75855 3.13086 7.4732 3.22161 8.17651 3.40311C8.87982 3.58461 9.48671 3.84551 9.99717 4.18582L9.29954 5.90439C8.77773 5.59811 8.23323 5.36557 7.66605 5.20676C7.09886 5.04794 6.54869 4.96854 6.01554 4.96854C5.14207 4.96854 4.48981 5.11601 4.05875 5.41094C3.63903 5.70588 3.42918 6.09724 3.42918 6.58501C3.42918 6.92533 3.54829 7.20325 3.7865 7.41878C4.03606 7.63431 4.34802 7.80446 4.72236 7.92924C5.0967 8.05402 5.60717 8.19582 6.25376 8.35463C7.13856 8.55882 7.86456 8.77435 8.43175 9.00122C8.99893 9.21675 9.48104 9.55139 9.87807 10.0051C10.2864 10.4589 10.4906 11.0714 10.4906 11.8428C10.4906 12.5008 10.3091 13.0963 9.94613 13.6294C9.59447 14.1626 9.05565 14.588 8.32965 14.9056C7.60366 15.2232 6.71885 15.382 5.67523 15.382Z" fill="black"/>
<path d="M18.4844 15.382C17.2707 15.382 16.176 15.1211 15.2004 14.5993C14.2249 14.0662 13.4592 13.3345 12.9033 12.4043C12.3475 11.4628 12.0696 10.4135 12.0696 9.25645C12.0696 8.0994 12.3475 7.05578 12.9033 6.1256C13.4592 5.18407 14.2249 4.4524 15.2004 3.93059C16.176 3.39744 17.2707 3.13086 18.4844 3.13086C19.6982 3.13086 20.7929 3.39744 21.7684 3.93059C22.744 4.4524 23.5097 5.1784 24.0655 6.10858C24.6214 7.03876 24.8993 8.08805 24.8993 9.25645C24.8993 10.4249 24.6214 11.4741 24.0655 12.4043C23.5097 13.3345 22.744 14.0662 21.7684 14.5993C20.7929 15.1211 19.6982 15.382 18.4844 15.382ZM18.4844 13.4423C19.2785 13.4423 19.9932 13.2664 20.6284 12.9148C21.2636 12.5518 21.7628 12.0527 22.1258 11.4174C22.4888 10.7708 22.6703 10.0505 22.6703 9.25645C22.6703 8.4624 22.4888 7.74774 22.1258 7.1125C21.7628 6.46591 21.2636 5.96678 20.6284 5.61513C19.9932 5.25213 19.2785 5.07063 18.4844 5.07063C17.6904 5.07063 16.9757 5.25213 16.3405 5.61513C15.7052 5.96678 15.2061 6.46591 14.8431 7.1125C14.4801 7.74774 14.2986 8.4624 14.2986 9.25645C14.2986 10.0505 14.4801 10.7708 14.8431 11.4174C15.2061 12.0527 15.7052 12.5518 16.3405 12.9148C16.9757 13.2664 17.6904 13.4423 18.4844 13.4423Z" fill="black"/>
<path d="M32.9934 15.382C31.7909 15.382 30.7019 15.1211 29.7264 14.5993C28.7622 14.0662 28.0021 13.3345 27.4463 12.4043C26.9018 11.4741 26.6295 10.4249 26.6295 9.25645C26.6295 8.08805 26.9075 7.03876 27.4633 6.10858C28.0191 5.1784 28.7792 4.4524 29.7434 3.93059C30.7189 3.39744 31.8079 3.13086 33.0104 3.13086C33.9859 3.13086 34.8764 3.30102 35.6818 3.64133C36.4872 3.98164 37.1678 4.47509 37.7237 5.12168L36.2944 6.46591C35.4322 5.53572 34.3716 5.07063 33.1125 5.07063C32.2957 5.07063 31.564 5.25213 30.9175 5.61513C30.2709 5.96678 29.7661 6.46023 29.4031 7.09548C29.0401 7.73073 28.8586 8.45105 28.8586 9.25645C28.8586 10.0619 29.0401 10.7822 29.4031 11.4174C29.7661 12.0527 30.2709 12.5518 30.9175 12.9148C31.564 13.2664 32.2957 13.4423 33.1125 13.4423C34.3716 13.4423 35.4322 12.9715 36.2944 12.03L37.7237 13.3912C37.1678 14.0378 36.4815 14.5313 35.6648 14.8716C34.8594 15.2119 33.9689 15.382 32.9934 15.382Z" fill="black"/>
<path d="M40.0795 3.30101H42.2915V15.2119H40.0795V3.30101Z" fill="black"/>
<path d="M54.6827 13.3572V15.2119H45.7495V3.30101H54.4444V5.15571H47.9615V8.25254H53.7128V10.0732H47.9615V13.3572H54.6827ZM50.9903 0H53.4916L50.5309 2.33113H48.6932L50.9903 0Z" fill="black"/>
<path d="M59.8011 5.17272H55.8535V3.30101H65.9607V5.17272H62.0131V15.2119H59.8011V5.17272Z" fill="black"/>
<path d="M76.7903 13.3572V15.2119H67.8571V3.30101H76.5521V5.15571H70.0692V8.25254H75.8204V10.0732H70.0692V13.3572H76.7903ZM73.0979 0H75.5992L72.6385 2.33113H70.8008L73.0979 0Z" fill="black"/>
<path d="M83.1849 15.382C82.2661 15.382 81.3756 15.2516 80.5135 14.9907C79.6627 14.7298 78.9878 14.3838 78.4886 13.9527L79.2543 12.2342C79.7421 12.6199 80.3377 12.9375 81.041 13.187C81.7556 13.4253 82.4703 13.5444 83.1849 13.5444C84.0697 13.5444 84.7277 13.4026 85.1587 13.119C85.6011 12.8354 85.8223 12.461 85.8223 11.996C85.8223 11.6556 85.6975 11.3777 85.448 11.1622C85.2098 10.9353 84.9035 10.7595 84.5291 10.6347C84.1548 10.5099 83.6443 10.3681 82.9977 10.2093C82.0903 9.99379 81.3529 9.77826 80.7857 9.56273C80.2299 9.3472 79.7478 9.01257 79.3394 8.55882C78.9424 8.09373 78.7439 7.46982 78.7439 6.68711C78.7439 6.02917 78.9197 5.43363 79.2713 4.90048C79.6343 4.35598 80.1732 3.92492 80.8878 3.60729C81.6138 3.28967 82.4986 3.13086 83.5422 3.13086C84.2682 3.13086 84.9829 3.22161 85.6862 3.40311C86.3895 3.58461 86.9964 3.84551 87.5069 4.18582L86.8092 5.90439C86.2874 5.59811 85.7429 5.36557 85.1757 5.20676C84.6085 5.04794 84.0584 4.96854 83.5252 4.96854C82.6518 4.96854 81.9995 5.11601 81.5684 5.41094C81.1487 5.70588 80.9389 6.09724 80.9389 6.58501C80.9389 6.92533 81.058 7.20325 81.2962 7.41878C81.5458 7.63431 81.8577 7.80446 82.232 7.92924C82.6064 8.05402 83.1169 8.19582 83.7634 8.35463C84.6483 8.55882 85.3743 8.77435 85.9414 9.00122C86.5086 9.21675 86.9907 9.55139 87.3878 10.0051C87.7961 10.4589 88.0003 11.0714 88.0003 11.8428C88.0003 12.5008 87.8188 13.0963 87.4558 13.6294C87.1042 14.1626 86.5653 14.588 85.8393 14.9056C85.1133 15.2232 84.2285 15.382 83.1849 15.382Z" fill="black"/>
<rect y="18.166" width="42.7752" height="23.16" fill="#FF0000"/>
<path d="M11.4452 33.134H5.48975L4.31568 35.8905H2.0356L7.39549 23.9796H9.57348L14.9504 35.8905H12.6363L11.4452 33.134ZM10.7135 31.3984L8.46747 26.1916L6.23844 31.3984H10.7135Z" fill="white"/>
<path d="M22.1257 26.7021C23.2714 26.7021 24.1902 27.0367 24.8822 27.706C25.5742 28.3753 25.9201 29.3679 25.9201 30.6837V35.8905H23.7932V30.956C23.7932 30.1619 23.606 29.5664 23.2317 29.1694C22.8573 28.761 22.3242 28.5568 21.6322 28.5568C20.8495 28.5568 20.2313 28.795 19.7775 29.2715C19.3238 29.7365 19.0969 30.4115 19.0969 31.2963V35.8905H16.97V26.8042H18.9948V27.9783C19.3465 27.5586 19.7889 27.2409 20.322 27.0254C20.8552 26.8099 21.4564 26.7021 22.1257 26.7021Z" fill="white"/>
<path d="M34.7893 35.397C34.5397 35.6012 34.2334 35.7544 33.8704 35.8565C33.5188 35.9586 33.1444 36.0096 32.7474 36.0096C31.7492 36.0096 30.9778 35.7487 30.4333 35.2269C29.8888 34.7051 29.6165 33.9451 29.6165 32.9468V28.5738H28.1192V26.8723H29.6165V24.7964H31.7435V26.8723H34.1767V28.5738H31.7435V32.8958C31.7435 33.3382 31.8513 33.6785 32.0668 33.9167C32.2823 34.1436 32.5943 34.257 33.0026 34.257C33.4791 34.257 33.8761 34.1322 34.1937 33.8827L34.7893 35.397Z" fill="white"/>
<path d="M37.2479 26.8042H39.3749V35.8905H37.2479V26.8042ZM38.3199 25.3068C37.9342 25.3068 37.6109 25.1877 37.35 24.9495C37.0891 24.6999 36.9587 24.3937 36.9587 24.0307C36.9587 23.6677 37.0891 23.3671 37.35 23.1288C37.6109 22.8793 37.9342 22.7545 38.3199 22.7545C38.7056 22.7545 39.0289 22.8736 39.2898 23.1118C39.5507 23.3387 39.6811 23.628 39.6811 23.9796C39.6811 24.354 39.5507 24.6716 39.2898 24.9325C39.0402 25.1821 38.7169 25.3068 38.3199 25.3068Z" fill="white"/>
<path d="M53.1962 35.8243C51.9938 35.8243 50.9048 35.5634 49.9292 35.0416C48.965 34.5084 48.205 33.7768 47.6492 32.8466C47.1047 31.9164 46.8324 30.8671 46.8324 29.6987C46.8324 28.5303 47.1103 27.481 47.6662 26.5508C48.222 25.6207 48.982 24.8947 49.9462 24.3729C50.9218 23.8397 52.0108 23.5731 53.2132 23.5731C54.1888 23.5731 55.0793 23.7433 55.8847 24.0836C56.6901 24.4239 57.3707 24.9174 57.9265 25.5639L56.4972 26.9082C55.6351 25.978 54.5745 25.5129 53.3153 25.5129C52.4986 25.5129 51.7669 25.6944 51.1203 26.0574C50.4737 26.4091 49.9689 26.9025 49.6059 27.5377C49.2429 28.173 49.0614 28.8933 49.0614 29.6987C49.0614 30.5041 49.2429 31.2244 49.6059 31.8597C49.9689 32.4949 50.4737 32.9941 51.1203 33.3571C51.7669 33.7087 52.4986 33.8845 53.3153 33.8845C54.5745 33.8845 55.6351 33.4138 56.4972 32.4723L57.9265 33.8335C57.3707 34.4801 56.6844 34.9735 55.8677 35.3139C55.0623 35.6542 54.1718 35.8243 53.1962 35.8243Z" fill="#FF0010"/>
<path d="M84.334 35.6542L81.9008 32.166C81.7987 32.1773 81.6456 32.183 81.4414 32.183H78.7529V35.6542H76.5409V23.7433H81.4414C82.4737 23.7433 83.3698 23.9134 84.1298 24.2537C84.9012 24.5941 85.4911 25.0818 85.8995 25.7171C86.3078 26.3523 86.512 27.1067 86.512 27.9802C86.512 28.8763 86.2908 29.6477 85.8484 30.2943C85.4174 30.9409 84.7934 31.423 83.9767 31.7406L86.7162 35.6542H84.334ZM84.283 27.9802C84.283 27.2201 84.0334 26.6359 83.5343 26.2276C83.0352 25.8192 82.3035 25.615 81.3393 25.615H78.7529V30.3623H81.3393C82.3035 30.3623 83.0352 30.1581 83.5343 29.7498C84.0334 29.3301 84.283 28.7402 84.283 27.9802Z" fill="#FF0010"/>
<path fill-rule="evenodd" clip-rule="evenodd" d="M66.5691 25.0349C69.0015 24.6203 71.3412 26.127 71.7948 28.4002C72.2485 30.6732 70.6445 32.852 68.2119 33.2666C65.7796 33.6811 63.4399 32.1745 62.9862 29.9014C62.5325 27.6282 64.1366 25.4494 66.5691 25.0349ZM66.9676 27.0319C65.7287 27.243 64.9138 28.3629 65.1473 29.5331C65.3809 30.7033 66.5745 31.4808 67.8134 31.2695C69.0524 31.0584 69.8674 29.9387 69.6338 28.7685C69.4002 27.5982 68.2066 26.8208 66.9676 27.0319Z" fill="#FF0010"/>
<path fill-rule="evenodd" clip-rule="evenodd" d="M72.9045 31.0934C73.7505 30.9492 74.5642 31.4732 74.722 32.2638C74.8797 33.0544 74.3219 33.8121 73.4758 33.9563C72.6298 34.1005 71.8161 33.5765 71.6584 32.7859C71.5006 31.9953 72.0586 31.2376 72.9045 31.0934Z" fill="#FF0010"/>
<path fill-rule="evenodd" clip-rule="evenodd" d="M68.8577 33.9642C69.6652 33.8266 70.442 34.3267 70.5925 35.0813C70.7432 35.8359 70.2105 36.5593 69.4031 36.6969C68.5956 36.8345 67.8189 36.3344 67.6682 35.5796C67.5177 34.825 68.0502 34.1018 68.8577 33.9642Z" fill="#FF0010"/>
<path fill-rule="evenodd" clip-rule="evenodd" d="M73.0636 26.1318C73.8486 25.998 74.6034 26.4843 74.7499 27.2177C74.8961 27.9511 74.3786 28.6542 73.5936 28.7879C72.8089 28.9217 72.054 28.4355 71.9076 27.702C71.7612 26.9686 72.2787 26.2656 73.0636 26.1318Z" fill="#FF0010"/>
<path fill-rule="evenodd" clip-rule="evenodd" d="M70.2943 21.8049C71.1975 21.651 72.0663 22.2105 72.2347 23.0545C72.4032 23.8986 71.8076 24.7076 70.9043 24.8615C70.0011 25.0153 69.1323 24.4559 68.964 23.6118C68.7956 22.7678 69.3912 21.9588 70.2943 21.8049Z" fill="#FF0010"/>
<path fill-rule="evenodd" clip-rule="evenodd" d="M64.8795 22.255C65.5255 22.1451 66.1467 22.545 66.2672 23.1486C66.3876 23.7522 65.9617 24.3308 65.3157 24.4408C64.6699 24.5509 64.0486 24.1508 63.9282 23.5472C63.8078 22.9437 64.2337 22.3652 64.8795 22.255Z" fill="#FF0010"/>
<path fill-rule="evenodd" clip-rule="evenodd" d="M61.0341 25.0775C61.9374 24.9236 62.8061 25.4831 62.9746 26.3271C63.143 27.1711 62.5474 27.9802 61.6442 28.134C60.7409 28.2879 59.8722 27.7285 59.7037 26.8844C59.5352 26.0404 60.1309 25.2314 61.0341 25.0775Z" fill="#FF0010"/>
<path fill-rule="evenodd" clip-rule="evenodd" d="M63.9107 33.4779C64.5195 33.3742 65.1052 33.7513 65.2187 34.3203C65.3324 34.8893 64.9309 35.4348 64.3219 35.5385C63.7131 35.6422 63.1274 35.2651 63.0139 34.6961C62.9002 34.1271 63.3018 33.5816 63.9107 33.4779Z" fill="#FF0010"/>
<path fill-rule="evenodd" clip-rule="evenodd" d="M60.3958 29.8935C61.1806 29.7598 61.9356 30.2459 62.0819 30.9793C62.2283 31.7129 61.7108 32.4159 60.9258 32.5495C60.1411 32.6834 59.386 32.1972 59.2396 31.4638C59.0934 30.7303 59.6109 30.0273 60.3958 29.8935Z" fill="#FF0010"/>
</svg>
